<?xml version="1.0" encoding="UTF-8"?>
<svg version="1.1" xmlns="http://www.w3.org/2000/svg" width="904" height="208">
<path d="M0 0 C7.85012442 6.39309375 13.52042266 15.36689518 14.625 25.4921875 C14.78951096 27.51018862 14.910762 29.53195941 15 31.5546875 C15.04898438 32.55628906 15.09796875 33.55789062 15.1484375 34.58984375 C14.39038562 38.79307169 13.06587904 39.94761446 9.625 42.4921875 C5.7496568 43.25045242 1.91973186 43.21343453 -2.01953125 43.19921875 C-3.70691658 43.22190071 -3.70691658 43.22190071 -5.4283905 43.24504089 C-9.01496348 43.28796636 -12.60069558 43.29676113 -16.1875 43.3046875 C-18.62176722 43.32782785 -21.05601439 43.3531922 -23.49023438 43.38085938 C-29.45183085 43.44375979 -35.41309808 43.47865544 -41.375 43.4921875 C-40.43599747 44.78879773 -39.49078437 46.08091182 -38.54296875 47.37109375 C-38.01727295 48.09111572 -37.49157715 48.8111377 -36.94995117 49.55297852 C-34.26117644 52.86361837 -31.33995556 54.17053565 -27.375 55.4921875 C-19.03440026 56.26254485 -12.8104562 54.72087947 -5.8125 50.2421875 C-1.64830811 48.12223527 0.20246004 48.07363695 4.625 49.4921875 C7.125 51.6796875 7.125 51.6796875 8.625 54.4921875 C8.71824901 58.87489102 7.28556874 61.80507776 4.328125 65.04296875 C-4.08340503 72.20048628 -14.33361336 73.80153604 -25 73.3046875 C-36.41033428 72.30699998 -45.64437098 68.0817753 -53.375 59.4921875 C-54.055625 58.7703125 -54.73625 58.0484375 -55.4375 57.3046875 C-62.14378962 47.56975096 -62.79942892 37.0052997 -61.375 25.4921875 C-59.0398275 14.78481788 -53.32213276 5.7826631 -44.375 -0.5078125 C-30.69956689 -7.32499537 -13.32384571 -8.45888889 0 0 Z M-38.375 17.4921875 C-40.63806321 20.73467478 -42.375 23.43013459 -42.375 27.4921875 C-29.175 27.4921875 -15.975 27.4921875 -2.375 27.4921875 C-5.02380572 17.74335648 -5.02380572 17.74335648 -11.375 12.4921875 C-21.14333742 9.03383201 -30.80462636 9.92181386 -38.375 17.4921875 Z " fill="#670EE4" transform="translate(296.375,68.5078125)"/>
<path d="M0 0 C8.62130495 7.34957989 12.25391834 17.1829173 13.265625 28.20703125 C13.43711151 32.88393602 13.10552016 35.96417951 10.0390625 39.73828125 C7.53356805 40.99102848 5.84170618 40.85857749 3.03857422 40.85180664 C1.47718216 40.85169334 1.47718216 40.85169334 -0.11575317 40.85157776 C-1.24286713 40.84641647 -2.36998108 40.84125519 -3.53125 40.8359375 C-4.68261444 40.83452255 -5.83397888 40.8331076 -7.02023315 40.83164978 C-10.70882736 40.82603841 -14.39736155 40.81348395 -18.0859375 40.80078125 C-20.58203038 40.79576772 -23.0781242 40.79120456 -25.57421875 40.78710938 C-31.70314559 40.77606528 -37.83203726 40.75931605 -43.9609375 40.73828125 C-43.20012367 42.02524598 -42.43008044 43.30675716 -41.65625 44.5859375 C-41.22844238 45.30015869 -40.80063477 46.01437988 -40.35986328 46.75024414 C-37.71311181 50.51158746 -34.23196927 52.31460399 -29.9609375 53.73828125 C-21.46492187 54.45200146 -14.8256221 53.57764137 -7.8984375 48.48828125 C-4.9609375 46.73828125 -4.9609375 46.73828125 -1.3359375 46.67578125 C2.75014666 47.96214108 4.06032788 48.94570656 6.0390625 52.73828125 C6.11399208 56.93433774 5.58750776 59.01844685 3.0390625 62.36328125 C-7.34783777 70.58624397 -17.42384219 72.52107916 -30.53125 71.2734375 C-41.49412345 69.56282968 -49.74425072 64.88928859 -56.7734375 56.36328125 C-63.77102717 46.7674977 -64.94049499 36.2293184 -63.25732422 24.57397461 C-61.99256966 17.22377174 -59.94620559 11.40229476 -54.9609375 5.73828125 C-54.41179687 5.09375 -53.86265625 4.44921875 -53.296875 3.78515625 C-39.80412757 -10.87819484 -15.74607246 -11.21142615 0 0 Z M-38.7734375 13.92578125 C-43.02805964 19.3193699 -43.02805964 19.3193699 -44.9609375 25.73828125 C-31.7609375 25.73828125 -18.5609375 25.73828125 -4.9609375 25.73828125 C-6.55134269 16.82251152 -6.55134269 16.82251152 -12.03125 11.890625 C-20.68177706 6.72482443 -30.97480535 7.86017846 -38.7734375 13.92578125 Z " fill="#21CE45" transform="translate(432.9609375,70.26171875)"/>
<path d="M0 0 C0.33 -0.99 0.66 -1.98 1 -3 C5.15453744 -5.44384555 8.41010489 -5.16833694 13 -4 C15.88258458 -1.81529773 16.88602982 -0.64548746 17.52139282 2.95298767 C17.5306076 4.10150711 17.53982239 5.25002655 17.54931641 6.43334961 C17.57791245 8.39074318 17.57791245 8.39074318 17.60708618 10.38768005 C17.60656331 11.80923572 17.60468912 13.23079143 17.6015625 14.65234375 C17.60933972 16.11438991 17.61800974 17.57643157 17.62753296 19.03846741 C17.6424449 22.10090796 17.64188475 25.16288734 17.63134766 28.2253418 C17.61975824 32.14449474 17.65361813 36.06175717 17.700037 39.9805975 C17.72954376 42.9996285 17.73125124 46.01820577 17.72501755 49.03735542 C17.72604242 50.481835 17.73648952 51.92634049 17.75664139 53.37067986 C17.89377093 64.5737287 17.89377093 64.5737287 15.74285889 68.00613403 C13.06106332 70.38738445 10.90647427 71.0129001 7.375 71.5 C3.92450422 70.98881544 2.3972056 70.49309382 0 68 C0 67.34 0 66.68 0 66 C-0.83917969 66.50660156 -0.83917969 66.50660156 -1.6953125 67.0234375 C-11.44888542 72.44905845 -22.13372826 74.26989961 -33.1171875 71.94140625 C-42.74545018 68.79721749 -49.25713999 62.84882167 -54 54 C-59.40842129 41.72088055 -59.61742542 27.54236833 -55 15 C-50.05067327 4.97041197 -43.485933 -1.24089194 -33 -5 C-20.97388336 -7.87009843 -10.7777762 -5.52578826 0 0 Z M-35.3125 17.375 C-40.14239008 24.88816235 -39.99482847 33.84388321 -38.60546875 42.44140625 C-36.89646517 48.07560515 -32.82748044 51.8032999 -28 55 C-21.06169188 57.28199107 -14.50195197 55.87891307 -8 53 C-4.79648587 50.818884 -3.1526859 49.22902885 -1 46 C-0.48091981 41.93387185 -0.53719073 37.84562965 -0.5 33.75 C-0.45875 32.62980469 -0.4175 31.50960937 -0.375 30.35546875 C-0.32427869 24.98534966 -0.29548405 21.06562709 -3.8359375 16.82421875 C-8.71836748 11.97913486 -13.2983564 10.82989725 -20 10.5625 C-26.84436568 10.75072006 -30.48336489 12.41534772 -35.3125 17.375 Z " fill="#31303E" transform="translate(642,69)"/>
<path d="M0 0 C8.4300686 6.78070735 12.39515147 13.67987427 13.875 24.3125 C14.04796009 27.51115887 14.08615031 30.70728178 14.11328125 33.91015625 C14.121353 34.82204208 14.12942474 35.73392792 14.13774109 36.67344666 C14.15151978 38.59388357 14.16226948 40.51434434 14.17016602 42.43481445 C14.18173299 44.3968016 14.20225838 46.35875615 14.23168945 48.32055664 C14.27429368 51.16313949 14.29051957 54.00479414 14.30078125 56.84765625 C14.31828934 57.72172623 14.33579742 58.5957962 14.35383606 59.49635315 C14.33909062 63.63499875 14.22238586 65.75915343 11.97338867 69.34155273 C9.2477843 71.90162302 8.33929737 72.26869836 4.5625 72.625 C0.27173265 72.26137565 -1.19953479 71.4100514 -4.125 68.3125 C-5.02810881 65.58420189 -5.2525277 63.08304303 -5.2668457 60.22167969 C-5.27388016 59.42695251 -5.28091461 58.63222534 -5.28816223 57.81341553 C-5.29232651 56.96233215 -5.29649078 56.11124878 -5.30078125 55.234375 C-5.32398507 53.41535308 -5.34810263 51.59634263 -5.37304688 49.77734375 C-5.4080878 46.92261122 -5.43747267 44.06829991 -5.45092773 41.21337891 C-5.46649006 38.44903041 -5.50675309 35.68589824 -5.55078125 32.921875 C-5.54887283 32.07888855 -5.54696442 31.2359021 -5.54499817 30.36737061 C-5.65967816 24.75305824 -6.61066995 19.84843612 -10.125 15.3125 C-14.53046962 12.61207681 -19.3429294 11.82492062 -24.3984375 12.7109375 C-30.50437976 14.48228594 -35.71881106 17.45270133 -39.14154053 22.94314575 C-42.00206168 28.18462572 -42.66905412 32.31474049 -42.55859375 38.23046875 C-42.56819133 39.91341243 -42.57796203 41.59635512 -42.58789062 43.27929688 C-42.57927092 45.89944021 -42.56233721 48.51934039 -42.5402832 51.1394043 C-42.52575936 53.69107685 -42.54100459 56.24134619 -42.55859375 58.79296875 C-42.54211288 59.5732695 -42.52563202 60.35357025 -42.50865173 61.15751648 C-42.54615602 65.24974792 -42.93323806 67.07398916 -45.53149414 70.30566406 C-48.77840921 72.81810329 -50.25308909 72.99177327 -54.19140625 72.74609375 C-57.23118646 72.06444607 -58.99196044 70.51017713 -61.125 68.3125 C-62.47565529 65.61118942 -62.25960776 63.49785146 -62.27026367 60.47338867 C-62.27664352 59.24839157 -62.28302338 58.02339447 -62.28959656 56.76127625 C-62.29112551 55.41767415 -62.29223932 54.07407152 -62.29296875 52.73046875 C-62.29618171 51.35524968 -62.29954582 49.98003096 -62.30305481 48.60481262 C-62.30904817 45.71887419 -62.31089458 42.8329657 -62.31030273 39.94702148 C-62.31020128 36.25490845 -62.32383477 32.56298848 -62.34107494 28.87092113 C-62.35221434 26.02870305 -62.35422132 23.18653127 -62.35369301 20.34429359 C-62.35487092 18.98357797 -62.35928211 17.62286107 -62.36702538 16.26216698 C-62.37686059 14.35473496 -62.37267386 12.44724637 -62.36791992 10.53979492 C-62.36934494 9.45550705 -62.37076996 8.37121918 -62.37223816 7.2540741 C-62.1141011 4.18282776 -61.53837612 2.04412169 -60.125 -0.6875 C-56.73704767 -3.05118768 -54.70369627 -3.6875 -50.5625 -3.6875 C-46.52141222 -2.51191083 -44.81284954 -0.86404946 -42.125 2.3125 C-41.34125 1.714375 -40.5575 1.11625 -39.75 0.5 C-27.74193184 -7.34713292 -12.28281982 -6.6327227 0 0 Z " fill="#650EE1" transform="translate(562.125,67.6875)"/>
<path d="M0 0 C2.67578125 1.56640625 2.67578125 1.56640625 5 4 C5.37398847 6.81239326 5.48293015 8.97592155 5.3125 11.75 C5.28994141 12.44738281 5.26738281 13.14476562 5.24414062 13.86328125 C5.18547048 15.57644935 5.09579256 17.28850623 5 19 C6.21236328 18.94779297 6.21236328 18.94779297 7.44921875 18.89453125 C8.51785156 18.86746094 9.58648437 18.84039062 10.6875 18.8125 C11.74324219 18.77769531 12.79898438 18.74289063 13.88671875 18.70703125 C18.34076628 19.12616998 20.88501354 20.88501354 24 24 C24.58338459 27.75032949 24.25015884 29.55741129 22.375 32.875 C18.37234657 35.3951892 16.45101084 35.22401287 11.7890625 35.1328125 C10.5201416 35.1136377 9.2512207 35.09446289 7.94384766 35.07470703 C6.97237793 35.05005371 6.0009082 35.02540039 5 35 C5.09360093 40.62366547 5.19971008 46.2469038 5.31738281 51.87011719 C5.35564968 53.78281195 5.39050658 55.69557811 5.421875 57.60839844 C5.46757527 60.35898342 5.52556145 63.10907783 5.5859375 65.859375 C5.59748871 66.71368103 5.60903992 67.56798706 5.62094116 68.44818115 C5.64081085 69.24870911 5.66068054 70.04923706 5.68115234 70.87402344 C5.69447601 71.57573669 5.70779968 72.27744995 5.7215271 73.00042725 C6.04434665 75.31843079 6.85873038 76.97133684 8 79 C12.65052872 79.26932521 12.65052872 79.26932521 17 78 C20.65546065 77.59383771 22.58917682 77.78565747 25.875 79.5 C28.29415784 82.34606805 28.80367869 84.29571172 28.5390625 88.03515625 C27.77703234 90.81270095 26.23016256 92.41695243 23.8828125 94.02734375 C16.08877819 98.05372247 8.30633873 97.12870504 0 95 C-5.69158831 92.15420585 -9.90768757 87.97041864 -12.12841797 81.93139648 C-13.35660213 77.28667301 -13.24980542 72.68471945 -13.1953125 67.91015625 C-13.1924826 66.96563095 -13.18965271 66.02110565 -13.18673706 65.04795837 C-13.17560684 62.05267276 -13.1505156 59.05769414 -13.125 56.0625 C-13.11496095 54.0227908 -13.10583672 51.98307688 -13.09765625 49.94335938 C-13.07569096 44.9621226 -13.04121076 39.98111322 -13 35 C-13.61488281 35.02320313 -14.22976563 35.04640625 -14.86328125 35.0703125 C-15.67152344 35.08835938 -16.47976563 35.10640625 -17.3125 35.125 C-18.11300781 35.14820313 -18.91351563 35.17140625 -19.73828125 35.1953125 C-22 35 -22 35 -25 33 C-25 32.34 -25 31.68 -25 31 C-25.66 31 -26.32 31 -27 31 C-27 28.36 -27 25.72 -27 23 C-21.90045061 19.66968203 -19.24717529 18.76001247 -13 19 C-13.04640625 17.87980469 -13.0928125 16.75960937 -13.140625 15.60546875 C-13.17814423 14.13283915 -13.21454423 12.66018073 -13.25 11.1875 C-13.30027344 10.08051758 -13.30027344 10.08051758 -13.3515625 8.95117188 C-13.45058051 3.48042666 -13.45058051 3.48042666 -11.171875 1.05078125 C-6.96369987 -0.98518837 -4.51829068 -1.17475558 0 0 Z " fill="#31303F" transform="translate(341,45)"/>
<path d="M0 0 C0.89811401 0.00233139 1.79622803 0.00466278 2.72155762 0.00706482 C4.6246895 0.01680475 6.52779226 0.03859765 8.43066406 0.0715332 C11.30578879 0.12044791 14.17918639 0.13298809 17.0546875 0.13867188 C26.4934668 0.19807979 35.60080973 0.47120559 44.84375 2.55859375 C44.87280924 6.30857745 44.89056874 10.05853212 44.90625 13.80859375 C44.91462891 14.87207031 44.92300781 15.93554688 44.93164062 17.03125 C44.93486328 18.05605469 44.93808594 19.08085937 44.94140625 20.13671875 C44.94664307 21.0793457 44.95187988 22.02197266 44.95727539 22.99316406 C44.85256235 25.35945366 44.44439833 27.28240726 43.84375 29.55859375 C43.72473727 30.98959205 43.64466686 32.42420596 43.59765625 33.859375 C43.56478516 34.67212891 43.53191406 35.48488281 43.49804688 36.32226562 C43.4372754 38.00964389 43.37993432 39.6971495 43.32617188 41.38476562 C43.09085573 47.01015358 42.74878366 52.55064586 39.65625 57.43359375 C36.77479579 59.22208257 34.19557934 59.38522327 30.84375 59.55859375 C27.37578316 58.61278461 24.95332872 57.4892301 22.84375 54.55859375 C22.59280308 51.8668893 22.51529052 49.42999998 22.59375 46.74609375 C22.61127319 45.62062134 22.61127319 45.62062134 22.62915039 44.47241211 C23.01759381 25.21090613 23.01759381 25.21090613 24.84375 21.55859375 C23.9057959 21.55448486 22.9678418 21.55037598 22.00146484 21.54614258 C18.50070466 21.51907373 15.00167275 21.46990034 11.50146484 21.40600586 C9.99050596 21.38289708 8.47938762 21.36844687 6.96826172 21.36303711 C4.78773465 21.35369405 2.60969036 21.31259744 0.4296875 21.265625 C-0.8795166 21.24991455 -2.1887207 21.2342041 -3.53759766 21.21801758 C-8.2262904 20.36360123 -9.84359791 18.9237727 -13.15625 15.55859375 C-13.8828125 13.05859375 -13.8828125 13.05859375 -13.78125 10.55859375 C-13.77351562 9.73359375 -13.76578125 8.90859375 -13.7578125 8.05859375 C-11.84917729 0.12660325 -7.05375733 -0.16012878 0 0 Z " fill="#680EE6" transform="translate(710.15625,3.44140625)"/>
<path d="M0 0 C1.45140381 0.04616455 1.45140381 0.04616455 2.93212891 0.09326172 C10.68861056 0.40632688 18.27240936 1.41982824 25.9375 2.625 C25.88215088 3.43428955 25.82680176 4.2435791 25.76977539 5.07739258 C25.55879099 8.17278184 25.34923333 11.26826423 25.14041138 14.36380005 C25.04700488 15.74329692 24.952993 17.12275293 24.85836792 18.50216675 C24.39748272 25.22264054 23.93736339 31.93944474 23.6875 38.671875 C23.65390381 39.53449951 23.62030762 40.39712402 23.58569336 41.28588867 C23.53022743 42.84035687 23.48602604 44.39528508 23.45532227 45.95043945 C23.29569315 50.30530527 22.69557598 53.2009649 19.9375 56.625 C17.01746756 58.65346516 14.92455248 58.84949764 11.4375 58.4375 C10.6846875 58.36144531 9.931875 58.28539062 9.15625 58.20703125 C6.32443604 57.46417864 4.92623332 56.80590305 2.9375 54.625 C2.60286169 52.03078555 2.51268906 49.89230358 2.625 47.3125 C2.64119385 46.60770508 2.6573877 45.90291016 2.67407227 45.17675781 C2.73452209 42.99077479 2.82925412 40.80910667 2.9375 38.625 C2.97037109 37.94711426 3.00324219 37.26922852 3.03710938 36.57080078 C3.60977092 25.65511547 3.60977092 25.65511547 4.9375 20.625 C3.58386353 20.67213135 3.58386353 20.67213135 2.20288086 20.72021484 C-1.17251909 20.82299249 -4.54623767 20.89793301 -7.92260742 20.95458984 C-9.37860483 20.98461041 -10.83442369 21.02544228 -12.28979492 21.07763672 C-25.93406463 21.5544149 -25.93406463 21.5544149 -30.515625 17.88671875 C-32.25996743 15.96439378 -33.03082725 14.71641567 -33.88671875 12.24609375 C-33.57009117 7.18909897 -32.92703026 4.26220495 -29.0625 0.625 C-21.80204877 -3.00522561 -7.96934872 -0.28886232 0 0 Z " fill="#22D146" transform="translate(701.0625,30.375)"/>
<path d="M0 0 C2.875 2.5625 2.875 2.5625 5 5 C5.66 4.38125 6.32 3.7625 7 3.125 C11.80323666 -0.27729264 16.45469202 -1.32936541 22.3125 -0.8125 C26.88707527 0.19545726 26.88707527 0.19545726 29 3 C29.67878372 6.07149634 29.56494834 8.91236156 29 12 C26.12269803 15.86947506 23.03667288 16.25179506 18.5 16.9375 C14.66570678 17.53096396 13.14592069 17.89279297 9.9375 20.25 C5.90962637 25.96698192 5.71844971 31.42018859 5.7265625 38.16015625 C5.70628407 39.94076161 5.6854335 41.72136054 5.6640625 43.50195312 C5.64143061 46.2888741 5.62497271 49.07554002 5.61914062 51.86254883 C5.60961591 54.56637758 5.57585611 57.26908023 5.5390625 59.97265625 C5.54410797 60.80297867 5.54915344 61.63330109 5.55435181 62.48878479 C5.48600552 66.51376889 5.30271984 68.52392678 3.09130859 72.00170898 C0.37509043 74.59711473 -0.52012718 74.95472898 -4.3125 75.3125 C-8.58777346 74.95018869 -10.04827827 74.03853708 -13 71 C-14.07270593 67.7818822 -14.13972897 65.43185359 -14.16113281 62.04736328 C-14.17074036 60.82244171 -14.1803479 59.59752014 -14.19024658 58.33547974 C-14.19509455 56.99709255 -14.19937338 55.65870321 -14.203125 54.3203125 C-14.20887917 52.94652302 -14.21463687 51.57273355 -14.22039795 50.19894409 C-14.23089807 47.31898627 -14.23674723 44.43905629 -14.24023438 41.55908203 C-14.2457179 37.87476244 -14.2697466 34.19081263 -14.29820633 30.50660896 C-14.31686026 27.66868017 -14.32203975 24.83083999 -14.32357025 21.99285507 C-14.32659098 20.63491672 -14.33459997 19.27697971 -14.34775543 17.91910172 C-14.36487194 16.01661786 -14.36108277 14.11398098 -14.35644531 12.21142578 C-14.36009094 11.13015411 -14.36373657 10.04888245 -14.36749268 8.93484497 C-13.94678525 5.57501996 -12.99988628 3.70931582 -11 1 C-7.12254017 -1.30551666 -4.27464132 -1.33582541 0 0 Z " fill="#2F2E3C" transform="translate(470,65)"/>
<path d="M0 0 C1.953125 0.2109375 1.953125 0.2109375 4 1 C4.984375 2.5390625 4.984375 2.5390625 5.75 4.625 C7.62291416 9.28462917 9.86687322 13.64964975 12.25 18.0625 C12.61577148 18.74199707 12.98154297 19.42149414 13.35839844 20.12158203 C14.23633354 21.74912586 15.11779243 23.37476809 16 25 C16.31227539 24.27820557 16.62455078 23.55641113 16.94628906 22.81274414 C18.3655907 19.55575681 19.80741367 16.30923691 21.25 13.0625 C21.74113281 11.92619141 22.23226563 10.78988281 22.73828125 9.61914062 C23.22167969 8.53955078 23.70507812 7.45996094 24.203125 6.34765625 C24.64301758 5.34742432 25.08291016 4.34719238 25.53613281 3.31665039 C27 1 27 1 29.11230469 0.10327148 C29.73524414 0.06919189 30.35818359 0.0351123 31 0 C32 1 32 1 32.11352539 4.14282227 C32.11336633 5.53402697 32.10767506 6.92523761 32.09765625 8.31640625 C32.0962413 9.04746078 32.09482635 9.77851532 32.09336853 10.53172302 C32.08775408 12.87535632 32.07519922 15.21889539 32.0625 17.5625 C32.05748686 19.14778508 32.05292363 20.73307166 32.04882812 22.31835938 C32.03777997 26.2122761 32.02050572 30.10612205 32 34 C30.35 34 28.7 34 27 34 C26.505 24.595 26.505 24.595 26 15 C23.03 21.27 20.06 27.54 17 34 C16.01 34 15.02 34 14 34 C12.68543451 31.23012967 11.3732713 28.45916513 10.0625 25.6875 C9.50272461 24.50897461 9.50272461 24.50897461 8.93164062 23.30664062 C8.57392578 22.54931641 8.21621094 21.79199219 7.84765625 21.01171875 C7.51773682 20.31522217 7.18781738 19.61872559 6.84790039 18.90112305 C6 17 6 17 5 14 C4.67 20.6 4.34 27.2 4 34 C2.35 33.67 0.7 33.34 -1 33 C-1.02465392 28.46102295 -1.04283789 23.92208457 -1.05493164 19.38305664 C-1.0599714 17.83780234 -1.0668032 16.29255284 -1.07543945 14.74731445 C-1.08752076 12.53074971 -1.09323173 10.31424782 -1.09765625 8.09765625 C-1.10281754 7.4028566 -1.10797882 6.70805695 -1.11329651 5.99220276 C-1.11349277 4.3277067 -1.06189129 2.66334501 -1 1 C-0.67 0.67 -0.34 0.34 0 0 Z " fill="#14962F" transform="translate(431,162)"/>
<path d="M0 0 C1.65 0 3.3 0 5 0 C5.25394531 0.99 5.50789063 1.98 5.76953125 3 C6.11696425 4.33339152 6.46463324 5.66672157 6.8125 7 C6.97814453 7.64839844 7.14378906 8.29679688 7.31445312 8.96484375 C8.57779916 13.77986071 10.19308536 18.36104435 12 23 C12.176521 22.37432129 12.35304199 21.74864258 12.53491211 21.10400391 C13.33371081 18.2770813 14.13556672 15.45103491 14.9375 12.625 C15.21529297 11.64015625 15.49308594 10.6553125 15.77929688 9.640625 C16.04677734 8.69960937 16.31425781 7.75859375 16.58984375 6.7890625 C16.83597412 5.91975098 17.08210449 5.05043945 17.33569336 4.15478516 C18 2 18 2 19 0 C20.65 0 22.3 0 24 0 C24.33773438 1.15757812 24.67546875 2.31515625 25.0234375 3.5078125 C25.47389983 5.04689212 25.92442394 6.58595367 26.375 8.125 C26.59671875 8.88554687 26.8184375 9.64609375 27.046875 10.4296875 C28.28382784 14.64987953 29.57708693 18.83764682 31 23 C33.26858827 15.72764611 35.20645194 8.40315583 37 1 C38.65 0.67 40.3 0.34 42 0 C41.38273432 7.08140908 39.5405457 13.58137595 37.5 20.375 C37.17902344 21.46683594 36.85804688 22.55867188 36.52734375 23.68359375 C34.15788849 31.68422302 34.15788849 31.68422302 33 34 C31.68 34 30.36 34 29 34 C28.20723961 31.47950607 27.41576535 28.95861986 26.625 26.4375 C26.29242188 25.38079102 26.29242188 25.38079102 25.953125 24.30273438 C24.56894857 19.88558313 23.25310767 15.45614457 22 11 C19.79003427 14.3149486 18.69585171 17.6207504 17.5 21.375 C16.1258079 25.63915973 14.72558074 29.86180174 13 34 C11.68 33.67 10.36 33.34 9 33 C6.41066561 23.78892904 3.82821994 14.5864208 1.578125 5.28515625 C1.12718747 3.50273426 0.58140973 1.7442292 0 0 Z " fill="#5009B3" transform="translate(295,162)"/>
<path d="M0 0 C1.32 0 2.64 0 4 0 C4 11.88 4 23.76 4 36 C2.68 36 1.36 36 0 36 C-0.33 35.01 -0.66 34.02 -1 33 C-2.485 33.495 -2.485 33.495 -4 34 C-4 34.66 -4 35.32 -4 36 C-13.92707157 36.78234364 -13.92707157 36.78234364 -18 33.8125 C-18.66 32.884375 -19.32 31.95625 -20 31 C-20.598125 30.21625 -21.19625 29.4325 -21.8125 28.625 C-23.60528133 24.66200968 -23.80417732 21.28328918 -22.34375 17.13671875 C-20.35976887 13.14310156 -17.92950321 10.59209516 -13.93359375 8.58984375 C-10.30030219 7.48150633 -7.68037591 8.09498953 -4 9 C-2.68 9.99 -1.36 10.98 0 12 C0 8.04 0 4.08 0 0 Z M-16 14 C-18.83405067 18.251076 -18.75459637 22.01172082 -18 27 C-15.99792865 30.12823648 -14.69604502 31.55889152 -11.0625 32.50390625 C-8.81795602 32.70370467 -7.17035809 32.61260107 -5 32 C-1.41863814 28.94092008 -0.15631434 27.11373964 0.5 22.4375 C-0.03391503 18.76683414 -0.64003879 16.84822905 -3 14 C-7.82831573 11.46513424 -11.13900294 11.63182195 -16 14 Z " fill="#15932E" transform="translate(523,160)"/>
<path d="M0 0 C0.99 0.66 1.98 1.32 3 2 C3.33 1.34 3.66 0.68 4 0 C5.32 0 6.64 0 8 0 C8 8.91 8 17.82 8 27 C6.68 27 5.36 27 4 27 C3.67 26.01 3.34 25.02 3 24 C2.01 24.33 1.02 24.66 0 25 C0 25.66 0 26.32 0 27 C-3.63 27 -7.26 27 -11 27 C-11 26.34 -11 25.68 -11 25 C-11.5775 24.979375 -12.155 24.95875 -12.75 24.9375 C-15.73207961 23.69496683 -16.78968934 21.77544834 -18.23046875 18.95703125 C-19.78872677 14.99415172 -19.78196073 11.80017342 -18.08203125 7.88671875 C-13.63311943 0.01113698 -8.65868288 -1.84529307 0 0 Z M-12 5 C-14.83405067 9.251076 -14.75459637 13.01172082 -14 18 C-11.99792865 21.12823648 -10.69604502 22.55889152 -7.0625 23.50390625 C-4.81795602 23.70370467 -3.17035809 23.61260107 -1 23 C2.58136186 19.94092008 3.84368566 18.11373964 4.5 13.4375 C3.96608497 9.76683414 3.35996121 7.84822905 1 5 C-3.82831573 2.46513424 -7.13900294 2.63182195 -12 5 Z " fill="#1BAB38" transform="translate(598,169)"/>
<path d="M0 0 C1.65 0 3.3 0 5 0 C5.33 5.28 5.66 10.56 6 16 C7.051875 14.865625 8.10375 13.73125 9.1875 12.5625 C11.99452585 9.7326528 13.85114741 8.12572281 18 8 C17.52590352 12.31730413 14.96603297 14.33647461 11.9375 17.25 C11.01839844 18.14203125 10.09929687 19.0340625 9.15234375 19.953125 C8.44207031 20.62859375 7.73179687 21.3040625 7 22 C8.45459431 23.64913882 9.91379257 25.29421782 11.375 26.9375 C12.18710937 27.85402344 12.99921875 28.77054688 13.8359375 29.71484375 C15.78709347 32.03601395 15.78709347 32.03601395 18 33 C18 33.99 18 34.98 18 36 C15.73828125 36.25 15.73828125 36.25 13 36 C10.98046875 34.25 10.98046875 34.25 9.1875 32 C8.58292969 31.2575 7.97835938 30.515 7.35546875 29.75 C6.68451172 28.88375 6.68451172 28.88375 6 28 C5.67 30.64 5.34 33.28 5 36 C3.35 36 1.7 36 0 36 C0 24.12 0 12.24 0 0 Z " fill="#46079E" transform="translate(380,160)"/>
<path d="M0 0 C3.29679781 2.07717318 6.38821886 4.20001964 7.67578125 7.98828125 C8.61488154 13.81522884 8.22498708 17.9957097 5 23 C2.57560943 25.8789638 0.99808736 26.91272015 -2.76953125 27.2421875 C-5.52516674 27.2492623 -8.2502513 27.17336419 -11 27 C-11 26.34 -11 25.68 -11 25 C-11.5775 24.979375 -12.155 24.95875 -12.75 24.9375 C-15.73096481 23.69543133 -16.78740319 21.7744938 -18.234375 18.9609375 C-19.70705141 15.18908262 -19.69543685 11.9546302 -18.33984375 8.14453125 C-16.37016421 4.14548491 -13.93436152 1.573511 -9.921875 -0.3984375 C-6.37523792 -1.50856374 -3.46735843 -1.29601851 0 0 Z M-12 5 C-14.83405067 9.251076 -14.75459637 13.01172082 -14 18 C-11.99792865 21.12823648 -10.69604502 22.55889152 -7.0625 23.50390625 C-4.81795602 23.70370467 -3.17035809 23.61260107 -1 23 C2.58136186 19.94092008 3.84368566 18.11373964 4.5 13.4375 C3.96608497 9.76683414 3.35996121 7.84822905 1 5 C-3.82831573 2.46513424 -7.13900294 2.63182195 -12 5 Z " fill="#19A636" transform="translate(548,169)"/>
<path d="M0 0 C4.25556334 2.55333801 6.40508207 5.30385277 8 10 C8.29700545 14.86564805 7.63569976 18.70504154 4.5625 22.5625 C2 25 2 25 0 25 C0 25.66 0 26.32 0 27 C-10.74331367 27.86022974 -10.74331367 27.86022974 -14.5625 24.8125 C-18.44630824 20.3311828 -19.42519941 16.74725527 -19.25 10.921875 C-18.70369631 6.72216541 -16.55191785 4.49672607 -13.5 1.75 C-9.01637609 -1.38853674 -5.16932524 -1.29486033 0 0 Z M-13.8125 6.625 C-15.54937014 10.09874029 -15.74641128 13.25358952 -15 17 C-13.66967147 19.91933205 -12.5973168 20.83556934 -10 23 C-7.13979773 23.80154862 -4.868164 23.74595394 -2 23 C1.20653576 21.29388912 1.20653576 21.29388912 3 18 C3.84590784 13.36622164 3.93385281 9.47261404 1.375 5.4375 C-4.12017982 2.11147011 -9.00824824 2.3177398 -13.8125 6.625 Z " fill="#19A836" transform="translate(484,169)"/>
<path d="M0 0 C3.62115567 2.11564237 6.82618631 4.89165207 8 9 C8.62739228 15.37848822 7.81014811 18.81396507 4 24 C1.75 24.9375 1.75 24.9375 0 25 C0 25.66 0 26.32 0 27 C-10.71695354 27.85811906 -10.71695354 27.85811906 -14.5625 25.125 C-17.83775236 20.92595851 -18.73583031 17.27513845 -19 12 C-18.4126216 7.52123968 -17.40974429 5.05488215 -14.0625 2.125 C-9.31278894 -1.17071788 -5.51680096 -1.53302409 0 0 Z M-13 6 C-15.43179785 9.73141441 -15.1561221 12.60398763 -14.5234375 16.87109375 C-14.06642863 19.16522866 -14.06642863 19.16522866 -12.5 21.5625 C-8.72181458 23.73495661 -5.24410661 23.89719165 -1 23 C1.88667626 20.54632518 2.77300412 18.69612069 3.9375 15.125 C4.01980841 11.00957938 3.04951672 8.55249566 1 5 C-4.32851394 1.93610449 -7.88576514 2.95322178 -13 6 Z " fill="#560AC1" transform="translate(356,169)"/>
<path d="M0 0 C2.9375 2.3125 2.9375 2.3125 5 5 C5 6.32 5 7.64 5 9 C3.68 9 2.36 9 1 9 C0.773125 8.360625 0.54625 7.72125 0.3125 7.0625 C-0.84336241 4.76757003 -0.84336241 4.76757003 -3.4375 4.1875 C-6.11939103 3.82612179 -6.11939103 3.82612179 -9 5 C-9 6.32 -9 7.64 -9 9 C-8.15695312 9.33773437 -7.31390625 9.67546875 -6.4453125 10.0234375 C-5.34960938 10.46945313 -4.25390625 10.91546875 -3.125 11.375 C-2.03445313 11.81585938 -0.94390625 12.25671875 0.1796875 12.7109375 C3 14 3 14 5 16 C5.34490322 20.05261287 5.30163882 21.54754176 3 25 C2.34 25 1.68 25 1 25 C1 25.66 1 26.32 1 27 C-2.63 27 -6.26 27 -10 27 C-10 26.34 -10 25.68 -10 25 C-10.639375 24.773125 -11.27875 24.54625 -11.9375 24.3125 C-14 23 -14 23 -14.75 20.375 C-14.8325 19.59125 -14.915 18.8075 -15 18 C-13.68 18 -12.36 18 -11 18 C-10.67 19.32 -10.34 20.64 -10 22 C-7.03 22 -4.06 22 -1 22 C-0.67 20.68 -0.34 19.36 0 18 C-0.84304688 17.66226563 -1.68609375 17.32453125 -2.5546875 16.9765625 C-3.65039062 16.53054687 -4.74609375 16.08453125 -5.875 15.625 C-6.96554687 15.18414062 -8.05609375 14.74328125 -9.1796875 14.2890625 C-12 13 -12 13 -14 11 C-14.4423824 7.01855844 -14.66305693 4.86883322 -12.1875 1.625 C-8.00269168 -1.48371475 -4.93439752 -1.19106147 0 0 Z " fill="#5009B5" transform="translate(412,169)"/>
<path d="M0 0 C1.87988281 0.24780273 1.87988281 0.24780273 4 1 C5.09667969 2.76586914 5.09667969 2.76586914 5.921875 5.03515625 C6.37626953 6.24848633 6.37626953 6.24848633 6.83984375 7.48632812 C7.14019531 8.33646484 7.44054687 9.18660156 7.75 10.0625 C8.22373047 11.34350586 8.22373047 11.34350586 8.70703125 12.65039062 C9.48567191 14.76215849 10.24916297 16.87822066 11 19 C12.50299586 16.74550621 13.73893169 14.65676367 14.9375 12.25 C15.28683594 11.55261719 15.63617187 10.85523438 15.99609375 10.13671875 C16.93517269 8.13797874 17.72088878 6.12735759 18.5 4.0625 C20 1 20 1 22.1875 0.0625 C22.785625 0.041875 23.38375 0.02125 24 0 C23.43116017 4.0841127 22.52141737 7.59660629 20.93359375 11.3984375 C20.53076172 12.37167969 20.12792969 13.34492188 19.71289062 14.34765625 C19.29201172 15.34667969 18.87113281 16.34570312 18.4375 17.375 C18.01275391 18.39722656 17.58800781 19.41945312 17.15039062 20.47265625 C16.10587881 22.98417905 15.05560951 25.49312619 14 28 C12.68 28 11.36 28 10 28 C9.61328125 27.09378906 9.2265625 26.18757813 8.828125 25.25390625 C8.57756348 24.66794678 8.32700195 24.0819873 8.06884766 23.47827148 C7.52063034 22.19566525 6.97343804 20.91262043 6.42724609 19.62915039 C4.89116785 16.03149345 3.29259313 12.47663651 1.625 8.9375 C0.22629339 5.83953825 -0.44575458 3.45459803 0 0 Z " fill="#138C2C" transform="translate(556,168)"/>
<path d="M0 0 C0.625 1.8125 0.625 1.8125 1 4 C0.01 5.485 0.01 5.485 -1 7 C-1.6487967 11.51894448 -1.79176264 15.61441538 0.5 19.625 C4.23754279 21.68064853 6.75102744 21.40466405 11 21 C11.99 20.34 12.98 19.68 14 19 C14 19.66 14 20.32 14 21 C14.99 20.67 15.98 20.34 17 20 C17 21.98 17 23.96 17 26 C16.34 25.01 15.68 24.02 15 23 C14.01 23.33 13.02 23.66 12 24 C12 24.66 12 25.32 12 26 C2.07292843 26.78234364 2.07292843 26.78234364 -2 23.8125 C-2.66 22.884375 -3.32 21.95625 -4 21 C-4.598125 20.21625 -5.19625 19.4325 -5.8125 18.625 C-7.40125924 15.1130059 -7.46196685 12.82772531 -7 9 C-5.38001314 5.06914952 -3.59705242 2.39803494 0 0 Z " fill="#1AB23A" transform="translate(507,170)"/>
<path d="M0 0 C0 1.65 0 3.3 0 5 C-1.134375 5.28875 -2.26875 5.5775 -3.4375 5.875 C-4.613125 6.24625 -5.78875 6.6175 -7 7 C-8.14654482 9.29308963 -8.19729117 10.79909656 -8.31640625 13.3515625 C-8.35830078 14.20234375 -8.40019531 15.053125 -8.44335938 15.9296875 C-8.48267578 16.81914062 -8.52199219 17.70859375 -8.5625 18.625 C-8.62727539 19.97078125 -8.62727539 19.97078125 -8.69335938 21.34375 C-8.79956861 23.56234283 -8.90161194 25.7810488 -9 28 C-10.32 28 -11.64 28 -13 28 C-13 19.09 -13 10.18 -13 1 C-10.525 1.495 -10.525 1.495 -8 2 C-3.6 0 -3.6 0 0 0 Z " fill="#560AC0" transform="translate(379,168)"/>
<path d="M0 0 C1.32 0 2.64 0 4 0 C4 11.88 4 23.76 4 36 C2.68 36 1.36 36 0 36 C0 24.12 0 12.24 0 0 Z " fill="#13882A" transform="translate(494,160)"/>
<path d="M0 0 C1.32 0 2.64 0 4 0 C3.37537397 7.0676863 1.57337282 13.5847207 -0.4375 20.375 C-0.90639648 22.01275391 -0.90639648 22.01275391 -1.38476562 23.68359375 C-1.68962891 24.72386719 -1.99449219 25.76414063 -2.30859375 26.8359375 C-2.58501709 27.78001465 -2.86144043 28.7240918 -3.14624023 29.69677734 C-4 32 -4 32 -6 34 C-5.505 31.03 -5.505 31.03 -5 28 C-5.99 28 -6.98 28 -8 28 C-8.33 26.02 -8.66 24.04 -9 22 C-8.34 22.33 -7.68 22.66 -7 23 C-4.97452787 16.50699714 -3.21670337 9.98985024 -1.6484375 3.37109375 C-1 1 -1 1 0 0 Z " fill="#5209B7" transform="translate(333,162)"/>
<path d="M0 0 C0.99 0.33 1.98 0.66 3 1 C3 11.89 3 22.78 3 34 C2.01 34 1.02 34 0 34 C0 25.42 0 16.84 0 8 C-0.99 8.33 -1.98 8.66 -3 9 C-2.4140625 2.84765625 -2.4140625 2.84765625 -2 1 C-1.34 0.67 -0.68 0.34 0 0 Z " fill="#21D046" transform="translate(460,162)"/>
<path d="M0 0 C0.680625 0.07863281 1.36125 0.15726563 2.0625 0.23828125 C4 0.6875 4 0.6875 7 2.6875 C7.33 2.0275 7.66 1.3675 8 0.6875 C9.32 0.6875 10.64 0.6875 12 0.6875 C12 9.5975 12 18.5075 12 27.6875 C11.67 27.6875 11.34 27.6875 11 27.6875 C10.67 20.7575 10.34 13.8275 10 6.6875 C9.34 6.6875 8.68 6.6875 8 6.6875 C8.33 8.0075 8.66 9.3275 9 10.6875 C8.34 10.6875 7.68 10.6875 7 10.6875 C6.7525 10.089375 6.505 9.49125 6.25 8.875 C4.72595895 6.20792816 3.73254065 5.12567929 1 3.6875 C-1.72036936 3.44256253 -4.25824366 3.55041218 -7 3.6875 C-7 2.6975 -7 1.7075 -7 0.6875 C-4.09583903 -0.28055366 -2.92345144 -0.37096827 0 0 Z " fill="#158E2D" transform="translate(594,168.3125)"/>
<path d="M0 0 C0.53625 0.226875 1.0725 0.45375 1.625 0.6875 C1.0475 0.955625 0.47 1.22375 -0.125 1.5 C-2.55378398 2.78185821 -4.39718503 3.76264909 -6.375 5.6875 C-6.95758733 8.73173576 -6.95758733 8.73173576 -6.82910156 12.27026367 C-6.82968567 12.93394455 -6.83026978 13.59762543 -6.83087158 14.28141785 C-6.82808663 16.47330181 -6.79697875 18.66382266 -6.765625 20.85546875 C-6.75816399 22.37575029 -6.75247039 23.89604146 -6.74847412 25.41633606 C-6.73320654 29.41639796 -6.69391582 33.41587824 -6.6496582 37.41571045 C-6.60872927 41.49776338 -6.59046824 45.57991037 -6.5703125 49.66210938 C-6.52742197 57.67083973 -6.45915786 65.6790975 -6.375 73.6875 C-7.035 73.3575 -7.695 73.0275 -8.375 72.6875 C-8.375 49.5875 -8.375 26.4875 -8.375 2.6875 C-2.375 -0.3125 -2.375 -0.3125 0 0 Z " fill="#600CD5" transform="translate(510.375,64.3125)"/>
<path d="M0 0 C0.33 0.66 0.66 1.32 1 2 C1.721875 1.67 2.44375 1.34 3.1875 1 C6.01697427 -0.00603529 8.02895466 -0.16977402 11 0 C11.33 0.66 11.66 1.32 12 2 C10.741875 2.103125 9.48375 2.20625 8.1875 2.3125 C5.50246888 2.64457099 4.26390349 2.80420064 2.0625 4.4375 C0.05917847 7.38356108 -0.07318464 8.93179933 0.3125 12.4375 C0.39113281 13.21996094 0.46976562 14.00242188 0.55078125 14.80859375 C0.91386649 17.27847118 0.91386649 17.27847118 3 20 C1.68 19.67 0.36 19.34 -1 19 C-0.34 19.99 0.32 20.98 1 22 C-0.9140625 21.29296875 -0.9140625 21.29296875 -3 20 C-4.93552698 15.39681192 -5.16284269 10.9326445 -4.3125 6.0625 C-3.13581716 3.31690671 -2.33383046 1.80341444 0 0 Z " fill="#44079A" transform="translate(342,171)"/>
<path d="M0 0 C0.66 0 1.32 0 2 0 C2.61681641 0.66322266 2.61681641 0.66322266 3.24609375 1.33984375 C5.59969878 3.56764361 8.05065713 4.39509067 11.0625 5.5625 C16.79166667 7.79166667 16.79166667 7.79166667 19 10 C19.125 12.625 19.125 12.625 19 15 C18.34 15 17.68 15 17 15 C17 14.01 17 13.02 17 12 C16.45601563 11.87496094 15.91203125 11.74992188 15.3515625 11.62109375 C12.63450862 10.90346656 10.0214948 10.00767671 7.375 9.0625 C6.41335938 8.72347656 5.45171875 8.38445312 4.4609375 8.03515625 C2 7 2 7 0 5 C-0.125 2.375 -0.125 2.375 0 0 Z " fill="#560BC1" transform="translate(398,175)"/>
<path d="M0 0 C1.65 0 3.3 0 5 0 C5.64779076 2.39531933 6.29329009 4.79121748 6.9375 7.1875 C7.21110352 8.19780273 7.21110352 8.19780273 7.49023438 9.22851562 C10.24739583 19.50520833 10.24739583 19.50520833 9 22 C8.34 22 7.68 22 7 22 C6.67 19.36 6.34 16.72 6 14 C5.34 14 4.68 14 4 14 C3.79503906 13.24074219 3.59007812 12.48148438 3.37890625 11.69921875 C3.10949219 10.70535156 2.84007812 9.71148437 2.5625 8.6875 C2.29566406 7.70136719 2.02882813 6.71523437 1.75390625 5.69921875 C1.21920575 3.78482474 0.62855462 1.88566385 0 0 Z " fill="#5F0CD3" transform="translate(295,162)"/>
<path d="M0 0 C1.46240849 3.82049265 0.49051262 5.97263738 -1.08984375 9.640625 C-1.54423828 10.71054688 -1.99863281 11.78046875 -2.46679688 12.8828125 C-2.95212891 13.99398437 -3.43746094 15.10515625 -3.9375 16.25 C-4.65969727 17.93996094 -4.65969727 17.93996094 -5.39648438 19.6640625 C-6.5875842 22.44722644 -7.789053 25.22542759 -9 28 C-9.33 28 -9.66 28 -10 28 C-10.56093761 23.51249916 -9.05184496 20.6976642 -6.97265625 16.8671875 C-5.86746821 14.86545514 -5.86746821 14.86545514 -5 12 C-5.66 12 -6.32 12 -7 12 C-6.52269162 10.5410574 -6.04308958 9.08286504 -5.5625 7.625 C-5.29566406 6.81289062 -5.02882813 6.00078125 -4.75390625 5.1640625 C-4 3 -4 3 -3 1 C-2.01 0.67 -1.02 0.34 0 0 Z " fill="#169931" transform="translate(579,168)"/>
<path d="M0 0 C0.36222656 0.46664062 0.72445313 0.93328125 1.09765625 1.4140625 C3.74408372 3.62032442 6.05531804 3.8452144 9.4375 4.375 C10.57058594 4.56835938 11.70367187 4.76171875 12.87109375 4.9609375 C16.41060964 5.00512621 17.50298918 4.41725371 20 2 C19.34 3.65 18.68 5.3 18 7 C17.34 7 16.68 7 16 7 C16 7.66 16 8.32 16 9 C6.3652978 9.91116273 6.3652978 9.91116273 3.15625 7.76953125 C0.92542292 5.14312146 0 3.46818792 0 0 Z " fill="#560AC0" transform="translate(340,187)"/>
<path d="M0 0 C0.33 0.66 0.66 1.32 1 2 C3.64 1.67 6.28 1.34 9 1 C9.33 1.66 9.66 2.32 10 3 C6.7 3.33 3.4 3.66 0 4 C-0.66 7.3 -1.32 10.6 -2 14 C-2.66 14 -3.32 14 -4 14 C-4 13.01 -4 12.02 -4 11 C-4.99 11 -5.98 11 -7 11 C-5.72278474 6.00724943 -3.82669043 3.42388092 0 0 Z " fill="#17A134" transform="translate(586,170)"/>
<path d="M0 0 C1.32 0 2.64 0 4 0 C3.44854729 5.23880078 2.57077907 9.97350697 1 15 C0.01 15 -0.98 15 -2 15 C-2.3690205 4.44191344 -2.3690205 4.44191344 0 0 Z " fill="#550ABD" transform="translate(333,162)"/>
<path d="M0 0 C0.66 0 1.32 0 2 0 C2.92092281 4.65537356 3.12205997 9.14685433 3.0625 13.875 C3.05798828 14.56335938 3.05347656 15.25171875 3.04882812 15.9609375 C3.03716336 17.64066335 3.01923271 19.32034375 3 21 C2.34 21 1.68 21 1 21 C0.67 19.35 0.34 17.7 0 16 C-0.66 16 -1.32 16 -2 16 C-1.34 10.72 -0.68 5.44 0 0 Z " fill="#1CB73C" transform="translate(602,175)"/>
<path d="M0 0 C0.66 0 1.32 0 2 0 C1.38938879 4.1521562 -0.13382059 7.26764117 -2 11 C-2.69907414 13.73572585 -2.69907414 13.73572585 -3 16 C-3.99 16 -4.98 16 -6 16 C-6.33 13.36 -6.66 10.72 -7 8 C-6.67 8.66 -6.34 9.32 -6 10 C-5.34 10 -4.68 10 -4 10 C-3.896875 9.0925 -3.79375 8.185 -3.6875 7.25 C-2.99350187 3.96928156 -2.29914332 2.39110905 0 0 Z " fill="#18AA37" transform="translate(572,180)"/>
<path d="M0 0 C0.99 0 1.98 0 3 0 C3 0.99 3 1.98 3 3 C3.66 3 4.32 3 5 3 C8 8.625 8 8.625 8 12 C6.68 12 5.36 12 4 12 C-0.57142857 4.71428571 -0.57142857 4.71428571 0 0 Z " fill="#19B039" transform="translate(579,181)"/>
<path d="M0 0 C0.66 0 1.32 0 2 0 C2.33 2.64 2.66 5.28 3 8 C3.66 8 4.32 8 5 8 C5.33 7.34 5.66 6.68 6 6 C8 11.75 8 11.75 8 14 C7.34 14 6.68 14 6 14 C6 15.65 6 17.3 6 19 C3.82276258 16.82276258 3.58100154 15.99514021 2.9296875 13.0859375 C2.75566406 12.32539063 2.58164062 11.56484375 2.40234375 10.78125 C2.14130859 9.59015625 2.14130859 9.59015625 1.875 8.375 C1.69324219 7.57320312 1.51148438 6.77140625 1.32421875 5.9453125 C0.87629211 3.96500524 0.43729396 1.9826823 0 0 Z " fill="#4607A0" transform="translate(299,176)"/>
<path d="M0 0 C0.33 0.66 0.66 1.32 1 2 C1.99 1.67 2.98 1.34 4 1 C4 2.98 4 4.96 4 7 C3.34 6.01 2.68 5.02 2 4 C1.01 4.33 0.02 4.66 -1 5 C-1 5.66 -1 6.32 -1 7 C-3.97 7 -6.94 7 -10 7 C-8 3 -8 3 -4.4375 1.8125 C-3.303125 1.544375 -2.16875 1.27625 -1 1 C-0.67 0.67 -0.34 0.34 0 0 Z " fill="#19A334" transform="translate(520,189)"/>
<path d="M0 0 C0.99 0.495 0.99 0.495 2 1 C3.3764647 6.81751117 3.09421723 13.06431476 3 19 C2.01 19 1.02 19 0 19 C0 12.73 0 6.46 0 0 Z " fill="#23DB4A" transform="translate(460,177)"/>
<path d="M0 0 C1.01586535 3.04759605 1.00433442 4.45093253 0.625 7.5625 C0.53476562 8.34753906 0.44453125 9.13257813 0.3515625 9.94140625 C0 12 0 12 -1 14 C-1.66 14 -2.32 14 -3 14 C-3.33 15.32 -3.66 16.64 -4 18 C-4.66 18 -5.32 18 -6 18 C-4.41039668 11.76559832 -2.72399099 5.83712355 0 0 Z " fill="#1AAB38" transform="translate(457,165)"/>
<path d="M0 0 C2 2 2 2 2.125 5.625 C2.08375 6.73875 2.0425 7.8525 2 9 C2.66 9 3.32 9 4 9 C3.34 10.98 2.68 12.96 2 15 C-0.33333333 15 -2.66666667 15 -5 15 C-4.360625 14.29875 -3.72125 13.5975 -3.0625 12.875 C-0.01038697 8.62053941 0 5.13779809 0 0 Z " fill="#4807A3" transform="translate(359,177)"/>
<path d="M0 0 C0.33 0 0.66 0 1 0 C1 6.6 1 13.2 1 20 C1.66 20 2.32 20 3 20 C3 20.99 3 21.98 3 23 C2.34 23 1.68 23 1 23 C1 26.96 1 30.92 1 35 C0.67 35 0.34 35 0 35 C0 23.45 0 11.9 0 0 Z " fill="#660DE2" transform="translate(382,161)"/>
<path d="M0 0 C2 3 2 3 3 5 C4.97888961 5.72693904 6.97954558 6.39816251 9 7 C9 7.66 9 8.32 9 9 C9.99 9.33 10.98 9.66 12 10 C8.8125 10.8125 8.8125 10.8125 5 11 C2.0625 8.9375 2.0625 8.9375 0 6 C-0.3125 2.6875 -0.3125 2.6875 0 0 Z " fill="#1BB43B" transform="translate(503,185)"/>
<path d="M0 0 C4.02822129 2.06854607 6.2212373 3.78714098 8 8 C8.23272824 10.7219085 8.13939346 13.25859522 8 16 C7.01 16 6.02 16 5 16 C4.96132813 14.86111328 4.96132813 14.86111328 4.921875 13.69921875 C4.86515625 12.70535156 4.8084375 11.71148437 4.75 10.6875 C4.70359375 9.70136719 4.6571875 8.71523437 4.609375 7.69921875 C3.86071244 4.38302755 2.77171797 3.80161668 0 2 C0 1.34 0 0.68 0 0 Z " fill="#5309BB" transform="translate(356,170)"/>
<path d="M0 0 C-0.55550695 3.59905908 -1.74887248 4.99909799 -4.5625 7.25 C-5.20316406 7.77078125 -5.84382813 8.2915625 -6.50390625 8.828125 C-6.99761719 9.21484375 -7.49132812 9.6015625 -8 10 C-8.36627907 4.50581395 -8.36627907 4.50581395 -6.6875 2.1875 C-4.51691595 0.66005197 -2.66187962 0 0 0 Z " fill="#430799" transform="translate(398,168)"/>
<path d="M0 0 C2.84383123 1.2748209 5.13754018 2.45137078 7 5 C6.6875 7.1875 6.6875 7.1875 6 9 C5.34 8.01 4.68 7.02 4 6 C3.67 6.99 3.34 7.98 3 9 C2.773125 8.38125 2.54625 7.7625 2.3125 7.125 C0.58360067 4.32582965 -0.87842357 3.89187898 -4 3 C-5.32 3 -6.64 3 -8 3 C-8 2.34 -8 1.68 -8 1 C-5.36 1.33 -2.72 1.66 0 2 C0 1.34 0 0.68 0 0 Z " fill="#14942F" transform="translate(548,170)"/>
<path d="M0 0 C4.38096619 4.79820107 5.98649042 11.7162406 7 18 C6.34 18 5.68 18 5 18 C4.15621025 15.94175571 3.32536378 13.87820214 2.5 11.8125 C2.0359375 10.66394531 1.571875 9.51539063 1.09375 8.33203125 C0.09194348 5.28009923 -0.23870804 3.16884928 0 0 Z " fill="#1BB93D" transform="translate(438,172)"/>
<path d="M0 0 C1.65 0 3.3 0 5 0 C5.66 2.97 6.32 5.94 7 9 C6.34 9 5.68 9 5 9 C4.34 9.66 3.68 10.32 3 11 C2.01 7.37 1.02 3.74 0 0 Z " fill="#4F09B0" transform="translate(295,162)"/>
<path d="M0 0 C0.66 0 1.32 0 2 0 C2.13277344 0.62648437 2.26554687 1.25296875 2.40234375 1.8984375 C2.57894531 2.71570313 2.75554687 3.53296875 2.9375 4.375 C3.19853516 5.59316406 3.19853516 5.59316406 3.46484375 6.8359375 C3.92330693 9.029463 3.92330693 9.029463 5 11 C4.01 10.67 3.02 10.34 2 10 C1.67 9.34 1.34 8.68 1 8 C0.34 8.66 -0.32 9.32 -1 10 C-2.4606285 7.35261084 -3 6.10551666 -3 3 C-2.01 3 -1.02 3 0 3 C0 2.01 0 1.02 0 0 Z " fill="#16952F" transform="translate(503,180)"/>
<path d="M0 0 C1.32 0.99 2.64 1.98 4 3 C3.01 6.3 2.02 9.6 1 13 C0 10 0 10 1 7 C0.01 7 -0.98 7 -2 7 C-2.33 5.02 -2.66 3.04 -3 1 C-2.01 1.495 -2.01 1.495 -1 2 C-0.67 1.34 -0.34 0.68 0 0 Z " fill="#44069B" transform="translate(327,183)"/>
<path d="M0 0 C1.98 0.99 1.98 0.99 4 2 C4 2.99 4 3.98 4 5 C3.67 4.67 3.34 4.34 3 4 C2.67 6.64 2.34 9.28 2 12 C1.34 12 0.68 12 0 12 C0 8.04 0 4.08 0 0 Z " fill="#330378" transform="translate(383,184)"/>
<path d="M0 0 C1.79240663 0.11389875 3.58394835 0.24147687 5.375 0.375 C6.87160156 0.47941406 6.87160156 0.47941406 8.3984375 0.5859375 C11 1 11 1 13 3 C8.71 3 4.42 3 0 3 C0 2.01 0 1.02 0 0 Z " fill="#410694" transform="translate(737,4)"/>
<path d="M0 0 C2 2 2 2 2 6 C2.99 6 3.98 6 5 6 C4.67 7.98 4.34 9.96 4 12 C3.34 12 2.68 12 2 12 C1.01 8.37 0.02 4.74 -1 1 C-0.67 0.67 -0.34 0.34 0 0 Z " fill="#6A0EE9" transform="translate(323,184)"/>
<path d="M0 0 C0.66 0.33 1.32 0.66 2 1 C-0.31 6.61 -2.62 12.22 -5 18 C-5.33 18 -5.66 18 -6 18 C-6.55884681 13.52922556 -5.06665743 10.76310328 -3.0234375 6.9375 C-1.83492908 4.68749932 -0.89294572 2.38118858 0 0 Z " fill="#0F7E27" transform="translate(575,178)"/>
<path d="M0 0 C0.66 0 1.32 0 2 0 C1.46148032 5.27749285 0.22656164 9.25645564 -2 14 C-3.25127906 10.45332822 -2.72285053 8.27746562 -1.5625 4.75 C-1.27503906 3.85796875 -0.98757813 2.9659375 -0.69140625 2.046875 C-0.46324219 1.37140625 -0.23507812 0.6959375 0 0 Z " fill="#6A0EEA" transform="translate(315,162)"/>
<path d="M0 0 C1.32 0 2.64 0 4 0 C4 0.66 4 1.32 4 2 C5.32 2 6.64 2 8 2 C8 2.66 8 3.32 8 4 C4.7 4 1.4 4 -2 4 C-1.34 2.68 -0.68 1.36 0 0 Z " fill="#15922E" transform="translate(476,192)"/>
<path d="M0 0 C0.33 0 0.66 0 1 0 C1.17942163 3.94727588 1.09350689 6.5980513 -1 10 C-1.99 10 -2.98 10 -4 10 C-4 8.35 -4 6.7 -4 5 C-3.01 5 -2.02 5 -1 5 C-0.67 3.35 -0.34 1.7 0 0 Z " fill="#1FC441" transform="translate(449,186)"/>
<path d="M0 0 C0.33 0 0.66 0 1 0 C1 6.27 1 12.54 1 19 C-0.49403054 16.01193893 -1.79310745 13.10343799 -3 10 C-2.34 10 -1.68 10 -1 10 C-0.67 6.7 -0.34 3.4 0 0 Z " fill="#1EC341" transform="translate(524,162)"/>
<path d="M0 0 C1.5 1.25 1.5 1.25 3 3 C3 4.32 3 5.64 3 7 C1.68 7 0.36 7 -1 7 C-1.66 5.35 -2.32 3.7 -3 2 C-2.01 2 -1.02 2 0 2 C0 1.34 0 0.68 0 0 Z " fill="#45079D" transform="translate(414,171)"/>
<path d="M0 0 C0.66 0 1.32 0 2 0 C2 0.66 2 1.32 2 2 C4.64 1.67 7.28 1.34 10 1 C10 1.66 10 2.32 10 3 C7.02148438 3.29296875 7.02148438 3.29296875 4.04296875 3.5859375 C1.70011858 3.92665391 1.70011858 3.92665391 -1 6 C-1.625 4.125 -1.625 4.125 -2 2 C-1.34 1.34 -0.68 0.68 0 0 Z " fill="#169931" transform="translate(471,170)"/>
<path d="M0 0 C0.99 0 1.98 0 3 0 C2.88648483 1.81325551 2.75887039 3.62563357 2.625 5.4375 C2.55539062 6.44683594 2.48578125 7.45617188 2.4140625 8.49609375 C2.27742187 9.32238281 2.14078125 10.14867187 2 11 C1.01 11.495 1.01 11.495 0 12 C0 8.04 0 4.08 0 0 Z " fill="#13952F" transform="translate(724,33)"/>
<path d="M0 0 C0.99 0 1.98 0 3 0 C2.88590407 1.45922693 2.75834456 2.91740598 2.625 4.375 C2.55539062 5.18710937 2.48578125 5.99921875 2.4140625 6.8359375 C2 9 2 9 0 11 C0 7.37 0 3.74 0 0 Z " fill="#420696" transform="translate(752,24)"/>
<path d="M0 0 C0.33 0.66 0.66 1.32 1 2 C1.99 1.67 2.98 1.34 4 1 C4 2.98 4 4.96 4 7 C3.34 6.01 2.68 5.02 2 4 C-1.11785113 4.64644661 -1.11785113 4.64644661 -2 7 C-2.6875 5.1875 -2.6875 5.1875 -3 3 C-1.5625 1.25 -1.5625 1.25 0 0 Z " fill="#14942F" transform="translate(599,189)"/>
<path d="M0 0 C0.53625 0.226875 1.0725 0.45375 1.625 0.6875 C1.0475 0.955625 0.47 1.22375 -0.125 1.5 C-2.4075868 2.70469859 -4.3487942 4.09548115 -6.375 5.6875 C-7.035 5.3575 -7.695 5.0275 -8.375 4.6875 C-8.375 4.0275 -8.375 3.3675 -8.375 2.6875 C-2.95961538 -0.38942308 -2.95961538 -0.38942308 0 0 Z " fill="#5209B7" transform="translate(510.375,64.3125)"/>
<path d="M0 0 C0.433125 0.474375 0.86625 0.94875 1.3125 1.4375 C3.02309613 3.23686957 3.02309613 3.23686957 6 4 C6 4.66 6 5.32 6 6 C6.66 6.33 7.32 6.66 8 7 C7.67 7.66 7.34 8.32 7 9 C3.64564078 7.61198929 1.88709697 6.11371 0 3 C0 2.01 0 1.02 0 0 Z " fill="#660EE2" transform="translate(340,187)"/>
<path d="M0 0 C-1.36983503 3.16115776 -1.9890638 3.9927092 -5 6 C-5.99 6 -6.98 6 -8 6 C-8 5.34 -8 4.68 -8 4 C-3.64705882 0 -3.64705882 0 0 0 Z " fill="#20C642" transform="translate(553,188)"/>
<path d="M0 0 C1.6415049 3.2830098 0.51888624 6.42545033 0 10 C-0.66 10 -1.32 10 -2 10 C-2.83241855 6.67032582 -3.2757381 4.24733335 -2 1 C-1.34 0.67 -0.68 0.34 0 0 Z " fill="#5C0CCB" transform="translate(340,176)"/>
<path d="M0 0 C2.97 1.98 2.97 1.98 6 4 C5.34 5.32 4.68 6.64 4 8 C1 6 1 6 0.3125 2.875 C0.209375 1.92625 0.10625 0.9775 0 0 Z " fill="#1CBA3D" transform="translate(470,188)"/>
<path d="M0 0 C0.33 0.66 0.66 1.32 1 2 C1.721875 1.67 2.44375 1.34 3.1875 1 C6.01697427 -0.00603529 8.02895466 -0.16977402 11 0 C11.33 0.66 11.66 1.32 12 2 C10.1746875 2.2165625 10.1746875 2.2165625 8.3125 2.4375 C5.17329623 2.82780953 2.0924866 3.32351856 -1 4 C-0.67 2.68 -0.34 1.36 0 0 Z " fill="#4D08AD" transform="translate(342,171)"/>
<path d="M0 0 C0 1.98 0 3.96 0 6 C-0.99 6.495 -0.99 6.495 -2 7 C-2 6.34 -2 5.68 -2 5 C-3.98 5.99 -3.98 5.99 -6 7 C-2.86206897 0 -2.86206897 0 0 0 Z " fill="#5109B6" transform="translate(390,173)"/>
<path d="M0 0 C0.66 0 1.32 0 2 0 C5 6.625 5 6.625 5 10 C4.34 10 3.68 10 3 10 C2.01 6.7 1.02 3.4 0 0 Z " fill="#21D347" transform="translate(557,170)"/>
<path d="M0 0 C1.485 0.99 1.485 0.99 3 2 C2.25 7.75 2.25 7.75 0 10 C0 6.7 0 3.4 0 0 Z " fill="#43079B" transform="translate(302,121)"/>
<path d="M0 0 C0.66 0 1.32 0 2 0 C2.33 0.66 2.66 1.32 3 2 C4.32 1.67 5.64 1.34 7 1 C6.01 1.495 6.01 1.495 5 2 C4.31867549 3.66072849 3.65257873 5.327767 3 7 C2.34 7.66 1.68 8.32 1 9 C0.67 6.03 0.34 3.06 0 0 Z " fill="#5E0CD2" transform="translate(368,170)"/>
<path d="M0 0 C2 1.1875 2 1.1875 4 3 C4.25 5.6875 4.25 5.6875 4 8 C3.01 8 2.02 8 1 8 C0.67 5.36 0.34 2.72 0 0 Z " fill="#23D146" transform="translate(565,188)"/>
<path d="M0 0 C1.98 0 3.96 0 6 0 C6 0.66 6 1.32 6 2 C7.32 2 8.64 2 10 2 C10 2.66 10 3.32 10 4 C8.51882199 3.71872579 7.04006751 3.42466268 5.5625 3.125 C4.73878906 2.96257812 3.91507812 2.80015625 3.06640625 2.6328125 C2.38449219 2.42398438 1.70257813 2.21515625 1 2 C0.67 1.34 0.34 0.68 0 0 Z " fill="#4A07A7" transform="translate(256,137)"/>
<path d="M0 0 C0.33 0.66 0.66 1.32 1 2 C1.99 1.67 2.98 1.34 4 1 C4 2.98 4 4.96 4 7 C3.34 6.01 2.68 5.02 2 4 C1.01 4 0.02 4 -1 4 C-1 1 -1 1 0 0 Z " fill="#148B2B" transform="translate(520,189)"/>
<path d="M0 0 C0.99 1.485 0.99 1.485 2 3 C2.53625 3.515625 3.0725 4.03125 3.625 4.5625 C5 6 5 6 5 8 C3.68 8 2.36 8 1 8 C-0.35439668 5.29120665 -0.06501451 2.99066732 0 0 Z " fill="#1FC742" transform="translate(503,185)"/>
<path d="M0 0 C0.66 0 1.32 0 2 0 C2 1.98 2 3.96 2 6 C1.01 6 0.02 6 -1 6 C-1.042721 4.33388095 -1.04063832 2.66617115 -1 1 C-0.67 0.67 -0.34 0.34 0 0 Z " fill="#6C0FEE" transform="translate(362,180)"/>
<path d="M0 0 C1.98 0 3.96 0 6 0 C6 1.32 6 2.64 6 4 C1.125 2.25 1.125 2.25 0 0 Z " fill="#19A937" transform="translate(671,47)"/>
</svg>
